<svg width="24" height="38" viewBox="0 0 24 38" fill="none" xmlns="http://www.w3.org/2000/svg">
<g clip-path="url(#clip0_2019_2)">
<path d="M11.0237 0.0962998C21.0373 -0.809491 26.9296 9.99682 22.4821 19.2724C19.5859 25.311 15.5378 31.139 12.555 37.1846C12.2554 37.6972 11.8093 37.6972 11.5097 37.1846C8.53356 31.139 4.47886 25.318 1.58264 19.2724C-2.46542 10.8184 1.86227 0.917831 11.0237 0.0962998ZM18.1677 12.8125C18.1677 9.23848 15.4246 6.34557 12.0357 6.34557C8.64677 6.34557 5.90367 9.23848 5.90367 12.8125C5.90367 16.3865 8.64677 19.2794 12.0357 19.2794C15.4246 19.2794 18.1677 16.3865 18.1677 12.8125Z" fill="white"/>
</g>
<defs>
<clipPath id="clip0_2019_2">
<rect width="24" height="38" fill="white"/>
</clipPath>
</defs>
</svg>
