<svg width="30" height="30" viewBox="0 0 30 30" fill="none" xmlns="http://www.w3.org/2000/svg">
<g clip-path="url(#clip0_2019_9)">
<path d="M6.38067 0.33017C8.19164 0.288041 9.78289 1.86792 10.8615 3.2582C11.707 4.34656 12.1265 5.59639 11.8469 6.9937C11.5206 8.58761 9.9693 10.3079 8.56447 10.9399C8.19828 11.1013 7.39934 11.2418 7.29281 11.7052C7.20625 12.0984 7.59906 12.8146 7.77216 13.1727C8.8441 15.4056 10.3488 17.47 12.1199 19.1622C13.032 20.0329 14.0174 20.8193 15.0693 21.5004C15.9216 22.0551 17.1599 22.996 18.1786 23.1084C18.871 23.1856 18.9975 22.2447 19.2705 21.7462C20.1294 20.1452 21.8671 18.4179 23.7247 18.5373C25.589 18.6566 27.1336 20.2506 28.2655 21.676C29.677 23.4524 29.2974 25.6291 27.9459 27.2722C26.7607 28.7186 25.2893 29.7578 23.4251 29.6876C17.0468 29.4419 10.8348 25.8327 6.68691 20.8052C4.99578 18.7549 3.61092 16.4308 2.61222 13.9311C1.66679 11.5858 0.641448 8.56654 0.981005 5.98258C1.30059 3.52501 3.91718 0.393372 6.39395 0.337199L6.38067 0.33017Z" fill="white"/>
</g>
<defs>
<clipPath id="clip0_2019_9">
<rect width="30" height="30" fill="white"/>
</clipPath>
</defs>
</svg>
