<svg width="198" height="59" viewBox="0 0 198 59" fill="none" xmlns="http://www.w3.org/2000/svg">
<g clip-path="url(#clip0_2010_206)">
<path opacity="0.4" d="M191.803 45.7027H99.8494L110.485 58.0055L81.5261 45.7027H5.87404C2.68117 45.7027 0.09375 43.1057 0.09375 39.901V5.8017C0.09375 2.59701 2.68117 0 5.87404 0H191.808C195.001 0 197.589 2.59701 197.589 5.8017V39.901C197.589 43.1057 195.001 45.7027 191.808 45.7027H191.803Z" fill="#64DAAB"/>
<path d="M177.323 22.6449V23.052C176.998 23.6195 176.558 24.1412 176.13 24.6342C173.508 27.6268 169.55 30.671 165.489 31.1239C160.622 31.6628 156.099 28.5785 152.94 25.1731C152.597 24.8062 151.432 23.5278 151.312 23.1322C151.238 22.9029 151.244 22.7538 151.323 22.5245C151.472 22.1175 152.586 20.9021 152.94 20.518C156.104 17.1069 160.617 14.0284 165.489 14.5673C169.561 15.0144 173.502 18.0643 176.13 21.0569C176.564 21.5499 177.004 22.0659 177.323 22.6392V22.6449ZM163.467 16.2757C160.011 16.5451 156.413 19.3084 154.134 21.7793C154.008 21.9111 153.288 22.7194 153.265 22.7997C153.243 22.8914 153.277 22.9316 153.323 23.0004C153.494 23.2583 153.951 23.7227 154.185 23.975C156.361 26.3197 159.577 28.7906 162.798 29.3295C167.311 30.0862 171.543 27.065 174.45 23.9234C174.582 23.78 175.347 22.9316 175.33 22.8341C175.313 22.7481 174.53 21.8652 174.399 21.7277C171.646 18.7465 167.716 15.9432 163.467 16.2757Z" fill="white"/>
<path d="M169.441 22.8513C169.441 25.7062 167.134 28.0223 164.289 28.0223C161.445 28.0223 159.137 25.7062 159.137 22.8513C159.137 19.9963 161.445 17.6802 164.289 17.6802C167.134 17.6802 169.441 19.9963 169.441 22.8513ZM167.728 22.8513C167.728 20.9479 166.191 19.4058 164.295 19.4058C162.399 19.4058 160.862 20.9479 160.862 22.8513C160.862 24.7546 162.399 26.2967 164.295 26.2967C166.191 26.2967 167.728 24.7546 167.728 22.8513Z" fill="white"/>
<path d="M26.4759 15.7273L31.0099 28.5838H31.1889L35.723 15.7273H37.6619L32.054 31H30.1449L24.5369 15.7273H26.4759ZM41.8903 15.7273V31H40.0408V15.7273H41.8903ZM45.5985 31V15.7273H54.8158V17.3679H47.4479V22.5284H54.3385V24.169H47.4479V29.3594H54.9351V31H45.5985ZM60.9234 31L56.7472 15.7273H58.6265L61.8183 28.1662H61.9674L65.2188 15.7273H67.3069L70.5583 28.1662H70.7075L73.8992 15.7273H75.7785L71.6024 31H69.6933L66.3225 18.8295H66.2032L62.8325 31H60.9234ZM83.9891 15.7273H86.1965L91.3868 28.4048H91.5658L96.7561 15.7273H98.9635V31H97.2334V19.3963H97.0843L92.3115 31H90.6411L85.8683 19.3963H85.7192V31H83.9891V15.7273ZM115.558 23.3636C115.558 24.9744 115.267 26.3665 114.686 27.5398C114.104 28.7131 113.306 29.6179 112.292 30.2543C111.278 30.8906 110.119 31.2088 108.817 31.2088C107.514 31.2088 106.356 30.8906 105.341 30.2543C104.327 29.6179 103.529 28.7131 102.948 27.5398C102.366 26.3665 102.075 24.9744 102.075 23.3636C102.075 21.7528 102.366 20.3608 102.948 19.1875C103.529 18.0142 104.327 17.1094 105.341 16.473C106.356 15.8366 107.514 15.5185 108.817 15.5185C110.119 15.5185 111.278 15.8366 112.292 16.473C113.306 17.1094 114.104 18.0142 114.686 19.1875C115.267 20.3608 115.558 21.7528 115.558 23.3636ZM113.768 23.3636C113.768 22.0412 113.547 20.9251 113.105 20.0153C112.667 19.1055 112.073 18.4169 111.322 17.9496C110.577 17.4822 109.741 17.2486 108.817 17.2486C107.892 17.2486 107.054 17.4822 106.303 17.9496C105.558 18.4169 104.964 19.1055 104.521 20.0153C104.084 20.9251 103.865 22.0412 103.865 23.3636C103.865 24.6861 104.084 25.8022 104.521 26.712C104.964 27.6218 105.558 28.3104 106.303 28.7777C107.054 29.245 107.892 29.4787 108.817 29.4787C109.741 29.4787 110.577 29.245 111.322 28.7777C112.073 28.3104 112.667 27.6218 113.105 26.712C113.547 25.8022 113.768 24.6861 113.768 23.3636ZM118.668 31V15.7273H123.828C125.021 15.7273 126.001 15.9311 126.767 16.3388C127.532 16.7415 128.099 17.2958 128.467 18.0018C128.835 18.7077 129.019 19.5107 129.019 20.4105C129.019 21.3104 128.835 22.1083 128.467 22.8043C128.099 23.5004 127.535 24.0472 126.774 24.445C126.013 24.8377 125.041 25.0341 123.858 25.0341H119.682V23.3636H123.798C124.614 23.3636 125.27 23.2443 125.767 23.0057C126.269 22.767 126.632 22.429 126.856 21.9915C127.085 21.549 127.199 21.022 127.199 20.4105C127.199 19.799 127.085 19.2646 126.856 18.8072C126.627 18.3498 126.262 17.9968 125.76 17.7482C125.258 17.4947 124.594 17.3679 123.769 17.3679H120.517V31H118.668ZM125.857 24.1392L129.615 31H127.468L123.769 24.1392H125.857ZM132.1 31V15.7273H141.318V17.3679H133.95V22.5284H140.84V24.169H133.95V29.3594H141.437V31H132.1Z" fill="white"/>
</g>
<defs>
<clipPath id="clip0_2010_206">
<rect width="198" height="59" fill="white"/>
</clipPath>
</defs>
</svg>
